<?xml version="1.0" standalone="no"?>
<!DOCTYPE svg PUBLIC "-//W3C//DTD SVG 20010904//EN"
 "http://www.w3.org/TR/2001/REC-SVG-20010904/DTD/svg10.dtd">
<svg version="1.0" xmlns="http://www.w3.org/2000/svg"
 width="1024.000000pt" height="1024.000000pt" viewBox="0 0 1024.000000 1024.000000"
 preserveAspectRatio="xMidYMid meet">

<g transform="translate(0.000000,1024.000000) scale(0.100000,-0.100000)"
fill="#000000" stroke="none">
<path d="M0 5120 l0 -5120 5120 0 5120 0 0 5120 0 5120 -5120 0 -5120 0 0
-5120z m7225 2449 c595 -51 1139 -383 1419 -865 95 -165 167 -367 182 -519 l7
-65 -359 0 -359 0 -33 84 c-125 317 -413 576 -737 663 -95 25 -112 27 -330 27
-218 0 -235 -2 -330 -27 -195 -52 -388 -172 -522 -323 -232 -263 -356 -552
-405 -944 -17 -138 -17 -563 0 -700 38 -305 121 -546 257 -750 263 -397 675
-596 1150 -559 267 20 517 139 705 335 198 206 294 430 325 757 l7 67 -551 0
-551 0 0 305 0 305 893 -2 892 -3 -1 -350 c-1 -359 -10 -491 -45 -672 -135
-700 -705 -1258 -1419 -1388 -123 -23 -464 -32 -597 -16 -425 50 -785 196
-1068 433 -426 356 -676 851 -747 1478 -19 167 -16 630 5 796 64 508 219 920
461 1220 84 104 261 273 363 347 396 284 877 411 1388 366z m-3908 -14 c284
-37 565 -143 783 -296 100 -70 244 -216 310 -313 125 -186 211 -438 222 -646
l3 -65 -354 0 -354 0 -18 90 c-70 366 -308 554 -739 583 -457 32 -767 -94
-903 -367 l-42 -84 0 -126 c0 -149 15 -197 95 -303 61 -81 154 -152 275 -212
120 -59 217 -92 550 -187 485 -139 827 -260 997 -353 304 -167 478 -408 539
-746 22 -116 19 -453 -4 -560 -49 -226 -162 -425 -335 -592 -206 -198 -517
-354 -847 -424 -101 -22 -156 -27 -347 -31 -251 -6 -382 4 -574 42 -484 98
-893 380 -1072 741 -72 144 -126 344 -139 512 l-6 77 358 0 358 -1 27 -110
c81 -328 289 -515 661 -595 147 -32 467 -33 609 -2 186 40 332 116 436 226
240 254 214 636 -57 842 -125 94 -322 169 -729 275 -492 129 -710 200 -915
300 -220 107 -344 210 -456 379 -222 337 -234 877 -28 1261 191 355 616 616
1114 684 139 19 437 19 582 1z"/>
</g>
</svg>
